<?xml version="1.0" standalone="no"?>
<svg xmlns:xlink="http://www.w3.org/1999/xlink" id="wave" style="transform:rotate(0deg); transition: 0.3s" viewBox="0 0 1440 490" version="1.1" xmlns="http://www.w3.org/2000/svg"><defs><linearGradient id="sw-gradient-0" x1="0" x2="0" y1="1" y2="0"><stop stop-color="rgba(243, 106, 62, 1)" offset="0%"/><stop stop-color="rgba(255, 179, 11, 1)" offset="100%"/></linearGradient></defs><path style="transform:translate(0, 0px); opacity:1" fill="url(#sw-gradient-0)" d="M0,98L60,147C120,196,240,294,360,343C480,392,600,392,720,383.8C840,376,960,359,1080,310.3C1200,261,1320,180,1440,147C1560,114,1680,131,1800,114.3C1920,98,2040,49,2160,40.8C2280,33,2400,65,2520,106.2C2640,147,2760,196,2880,212.3C3000,229,3120,212,3240,187.8C3360,163,3480,131,3600,98C3720,65,3840,33,3960,81.7C4080,131,4200,261,4320,294C4440,327,4560,261,4680,245C4800,229,4920,261,5040,261.3C5160,261,5280,229,5400,179.7C5520,131,5640,65,5760,106.2C5880,147,6000,294,6120,343C6240,392,6360,343,6480,277.7C6600,212,6720,131,6840,98C6960,65,7080,82,7200,130.7C7320,180,7440,261,7560,294C7680,327,7800,310,7920,310.3C8040,310,8160,327,8280,334.8C8400,343,8520,343,8580,343L8640,343L8640,490L8580,490C8520,490,8400,490,8280,490C8160,490,8040,490,7920,490C7800,490,7680,490,7560,490C7440,490,7320,490,7200,490C7080,490,6960,490,6840,490C6720,490,6600,490,6480,490C6360,490,6240,490,6120,490C6000,490,5880,490,5760,490C5640,490,5520,490,5400,490C5280,490,5160,490,5040,490C4920,490,4800,490,4680,490C4560,490,4440,490,4320,490C4200,490,4080,490,3960,490C3840,490,3720,490,3600,490C3480,490,3360,490,3240,490C3120,490,3000,490,2880,490C2760,490,2640,490,2520,490C2400,490,2280,490,2160,490C2040,490,1920,490,1800,490C1680,490,1560,490,1440,490C1320,490,1200,490,1080,490C960,490,840,490,720,490C600,490,480,490,360,490C240,490,120,490,60,490L0,490Z"/></svg>